<svg width="84" height="109" viewBox="0 0 84 109" fill="none" xmlns="http://www.w3.org/2000/svg">
<path d="M0 36.6612L41.5714 60.4163L83.1428 36.6612L41.5714 12.9061L0 36.6612Z" fill="#E4E7F1"/>
<path d="M0 84.1714V36.6612L41.5714 60.4163V107.926L0 84.1714Z" fill="#E4E7F1"/>
<path d="M41.5714 60.4163V107.926L83.1428 84.1714V36.6612L41.5714 60.4163Z" fill="#E4E7F1"/>
<path d="M41.5714 60.4163V107.926L83.1428 84.1714V36.6612L41.5714 60.4163Z" fill="#E4E7F1"/>
<path d="M41.5714 60.4163V107.926L83.1428 84.1714V36.6612L41.5714 60.4163Z" fill="#E4E7F1"/>
<path d="M41.5714 60.4163V107.926L83.1428 84.1714V36.6612L41.5714 60.4163Z" fill="#E4E7F1"/>
<g filter="url(#filter0_i_0_4904)">
<path d="M0 36.6939L41.6286 60.4816L83.2571 36.6939L41.6286 12.9061L0 36.6939Z" fill="#E4E7F1"/>
<path d="M0 84.2694V36.6939L41.6286 60.4816V108.057L0 84.2694Z" fill="#E4E7F1"/>
<path d="M41.6286 60.4816V108.057L83.2571 84.2694V36.6939L41.6286 60.4816Z" fill="#E4E7F1"/>
<path d="M41.6286 60.4816V108.057L83.2571 84.2694V36.6939L41.6286 60.4816Z" fill="#E4E7F1"/>
<path d="M41.6286 60.4816V108.057L83.2571 84.2694V36.6939L41.6286 60.4816Z" fill="#E4E7F1"/>
<path d="M41.6286 60.4816V108.057L83.2571 84.2694V36.6939L41.6286 60.4816Z" fill="#E4E7F1"/>
</g>
<g filter="url(#filter1_i_0_4904)">
<path d="M0 36.6939L41.6286 60.4816L83.2571 36.6939L41.6286 12.9061L0 36.6939Z" fill="#AFB4C4"/>
<path d="M0 36.6939L41.6286 60.4816L83.2571 36.6939L41.6286 12.9061L0 36.6939Z" fill="white" fill-opacity="0.4"/>
<path d="M0 84.2694V36.6939L41.6286 60.4816V108.057L0 84.2694Z" fill="#AFB4C4"/>
<path d="M0 84.2694V36.6939L41.6286 60.4816V108.057L0 84.2694Z" fill="white" fill-opacity="0.4"/>
</g>
<g filter="url(#filter2_i_0_4904)">
<path d="M0 36.6939L41.6286 60.4816L83.2571 36.6939L41.6286 12.9061L0 36.6939Z" fill="#F2F3F8"/>
</g>
<rect width="36.9469" height="36.9469" rx="11.1347" transform="matrix(0.866025 0.5 -0.866025 0.5 41.7266 18.3512)" fill="#E4E7F1"/>
<g clip-path="url(#clip0_0_4904)">
<path d="M43.9182 33.5348C44.1603 33.3951 44.5528 33.3951 44.7948 33.5348L47.4247 35.0532C47.6668 35.193 47.6668 35.4196 47.4247 35.5593L48.3014 36.0654C48.7855 36.345 48.7855 36.7982 48.3014 37.0777L41.7266 40.8736C41.2425 41.1531 40.4575 41.1531 39.9734 40.8736L34.7136 37.8369C34.2295 37.5574 34.2295 37.1042 34.7136 36.8246L41.2883 33.0287C41.7725 32.7492 42.5574 32.7492 43.0416 33.0287L43.9182 33.5348ZM43.0416 34.041L42.165 33.5348L35.5902 37.3308L40.85 40.3675L47.4247 36.5716L46.5481 36.0654L46.1098 36.3185C45.8677 36.4583 45.4752 36.4583 45.2332 36.3185L42.6033 34.8001C42.3612 34.6604 42.3612 34.4338 42.6033 34.294L43.0416 34.041ZM46.1098 35.3063L44.3565 34.294L43.9182 34.5471L45.6715 35.5593L46.1098 35.3063ZM43.8806 37.4573C43.8806 37.6549 43.6031 37.8152 43.2607 37.8152L39.7542 37.8152C39.4119 37.8152 39.1344 37.6549 39.1344 37.4573L39.1344 36.445C39.1344 36.2474 39.4119 36.0872 39.7542 36.0872C40.0966 36.0872 40.3741 36.2474 40.3741 36.445L40.3741 37.0994L43.2607 37.0994C43.6031 37.0994 43.8806 37.2596 43.8806 37.4573Z" fill="#F46A0F"/>
</g>
<rect x="-2.98023e-08" y="0.5" width="35.9469" height="35.9469" rx="10.6347" transform="matrix(0.866025 0.5 -0.866025 0.5 42.1596 10.6255)" fill="#28262B"/>
<g clip-path="url(#clip1_0_4904)">
<path d="M43.9182 25.5591C44.1603 25.4194 44.5528 25.4194 44.7948 25.5591L47.4247 27.0775C47.6668 27.2173 47.6668 27.4439 47.4247 27.5836L48.3014 28.0897C48.7855 28.3693 48.7855 28.8225 48.3014 29.102L41.7266 32.8979C41.2425 33.1774 40.4575 33.1774 39.9734 32.8979L34.7136 29.8612C34.2295 29.5816 34.2295 29.1284 34.7136 28.8489L41.2883 25.053C41.7725 24.7735 42.5574 24.7735 43.0416 25.053L43.9182 25.5591ZM43.0416 26.0653L42.165 25.5591L35.5902 29.355L40.85 32.3918L47.4247 28.5959L46.5481 28.0897L46.1098 28.3428C45.8677 28.4826 45.4752 28.4826 45.2332 28.3428L42.6033 26.8244C42.3612 26.6847 42.3612 26.4581 42.6033 26.3183L43.0416 26.0653ZM46.1098 27.3306L44.3565 26.3183L43.9182 26.5714L45.6715 27.5836L46.1098 27.3306ZM43.8806 29.4816C43.8806 29.6792 43.6031 29.8395 43.2607 29.8395L39.7542 29.8395C39.4119 29.8395 39.1344 29.6792 39.1344 29.4816L39.1344 28.4693C39.1344 28.2717 39.4119 28.1115 39.7542 28.1115C40.0966 28.1115 40.3741 28.2717 40.3741 28.4693L40.3741 29.1237L43.2607 29.1237C43.6031 29.1237 43.8806 29.2839 43.8806 29.4816Z" fill="#F46A0F"/>
</g>
<rect x="-2.98023e-08" y="0.5" width="35.9469" height="35.9469" rx="10.6347" transform="matrix(0.866025 0.5 -0.866025 0.5 42.1596 10.6255)" stroke="#F46A0F"/>
<rect x="-2.98023e-08" y="0.5" width="35.9469" height="35.9469" rx="10.6347" transform="matrix(0.866025 0.5 -0.866025 0.5 42.1596 0.25)" fill="#28262B"/>
<g clip-path="url(#clip2_0_4904)">
<path d="M43.9182 15.1836C44.1603 15.0439 44.5528 15.0439 44.7948 15.1836L47.4247 16.702C47.6668 16.8418 47.6668 17.0684 47.4247 17.2081L48.3014 17.7143C48.7855 17.9938 48.7855 18.447 48.3014 18.7265L41.7266 22.5224C41.2425 22.8019 40.4575 22.8019 39.9734 22.5224L34.7136 19.4857C34.2295 19.2062 34.2295 18.753 34.7136 18.4734L41.2883 14.6775C41.7725 14.398 42.5574 14.398 43.0416 14.6775L43.9182 15.1836ZM43.0416 15.6898L42.165 15.1836L35.5902 18.9796L40.85 22.0163L47.4247 18.2204L46.5481 17.7143L46.1098 17.9673C45.8677 18.1071 45.4752 18.1071 45.2332 17.9673L42.6033 16.4489C42.3612 16.3092 42.3612 16.0826 42.6033 15.9428L43.0416 15.6898ZM46.1098 16.9551L44.3565 15.9428L43.9182 16.1959L45.6715 17.2081L46.1098 16.9551ZM43.8806 19.1061C43.8806 19.3037 43.6031 19.464 43.2607 19.464L39.7542 19.464C39.4119 19.464 39.1344 19.3037 39.1344 19.1061L39.1344 18.0938C39.1344 17.8962 39.4119 17.736 39.7542 17.736C40.0966 17.736 40.3741 17.8962 40.3741 18.0938L40.3741 18.7482L43.2607 18.7482C43.6031 18.7482 43.8806 18.9084 43.8806 19.1061Z" fill="#F46A0F"/>
</g>
<rect x="-2.98023e-08" y="0.5" width="35.9469" height="35.9469" rx="10.6347" transform="matrix(0.866025 0.5 -0.866025 0.5 42.1596 0.25)" stroke="#F46A0F"/>
<defs>
<filter id="filter0_i_0_4904" x="0" y="12.9061" width="83.2571" height="95.151" filterUnits="userSpaceOnUse" color-interpolation-filters="sRGB">
<feFlood flood-opacity="0" result="BackgroundImageFix"/>
<feBlend mode="normal" in="SourceGraphic" in2="BackgroundImageFix" result="shape"/>
<feColorMatrix in="SourceAlpha" type="matrix" values="0 0 0 0 0 0 0 0 0 0 0 0 0 0 0 0 0 0 127 0" result="hardAlpha"/>
<feOffset/>
<feGaussianBlur stdDeviation="3.03674"/>
<feComposite in2="hardAlpha" operator="arithmetic" k2="-1" k3="1"/>
<feColorMatrix type="matrix" values="0 0 0 0 0.811765 0 0 0 0 0.823529 0 0 0 0 0.862745 0 0 0 1 0"/>
<feBlend mode="normal" in2="shape" result="effect1_innerShadow_0_4904"/>
</filter>
<filter id="filter1_i_0_4904" x="0" y="12.9061" width="83.2571" height="96.1632" filterUnits="userSpaceOnUse" color-interpolation-filters="sRGB">
<feFlood flood-opacity="0" result="BackgroundImageFix"/>
<feBlend mode="normal" in="SourceGraphic" in2="BackgroundImageFix" result="shape"/>
<feColorMatrix in="SourceAlpha" type="matrix" values="0 0 0 0 0 0 0 0 0 0 0 0 0 0 0 0 0 0 127 0" result="hardAlpha"/>
<feOffset dy="1.01224"/>
<feGaussianBlur stdDeviation="10.6286"/>
<feComposite in2="hardAlpha" operator="arithmetic" k2="-1" k3="1"/>
<feColorMatrix type="matrix" values="0 0 0 0 1 0 0 0 0 1 0 0 0 0 1 0 0 0 1 0"/>
<feBlend mode="normal" in2="shape" result="effect1_innerShadow_0_4904"/>
</filter>
<filter id="filter2_i_0_4904" x="0" y="12.9061" width="83.2571" height="48.5878" filterUnits="userSpaceOnUse" color-interpolation-filters="sRGB">
<feFlood flood-opacity="0" result="BackgroundImageFix"/>
<feBlend mode="normal" in="SourceGraphic" in2="BackgroundImageFix" result="shape"/>
<feColorMatrix in="SourceAlpha" type="matrix" values="0 0 0 0 0 0 0 0 0 0 0 0 0 0 0 0 0 0 127 0" result="hardAlpha"/>
<feOffset dy="1.01224"/>
<feGaussianBlur stdDeviation="2.78367"/>
<feComposite in2="hardAlpha" operator="arithmetic" k2="-1" k3="1"/>
<feColorMatrix type="matrix" values="0 0 0 0 1 0 0 0 0 1 0 0 0 0 1 0 0 0 0.25 0"/>
<feBlend mode="normal" in2="shape" result="effect1_innerShadow_0_4904"/>
</filter>
<clipPath id="clip0_0_4904">
<rect width="12.1469" height="12.1469" fill="white" transform="matrix(0.866025 0.5 -0.866025 0.5 41.7266 30.7512)"/>
</clipPath>
<clipPath id="clip1_0_4904">
<rect width="12.1469" height="12.1469" fill="white" transform="matrix(0.866025 0.5 -0.866025 0.5 41.7266 22.7755)"/>
</clipPath>
<clipPath id="clip2_0_4904">
<rect width="12.1469" height="12.1469" fill="white" transform="matrix(0.866025 0.5 -0.866025 0.5 41.7266 12.4)"/>
</clipPath>
</defs>
</svg>
