<svg width="18" height="18" viewBox="0 0 18 18" fill="none" xmlns="http://www.w3.org/2000/svg">
<path d="M9 1.8C5.02355 1.8 1.8 5.02355 1.8 9C1.8 12.9765 5.02355 16.2 9 16.2C12.9765 16.2 16.2 12.9765 16.2 9C16.2 5.02355 12.9765 1.8 9 1.8ZM0 9C0 4.02944 4.02944 0 9 0C13.9706 0 18 4.02944 18 9C18 13.9706 13.9706 18 9 18C4.02944 18 0 13.9706 0 9ZM13.1979 6.07733C13.5694 6.40756 13.6029 6.97642 13.2727 7.34793L8.47267 12.7479C8.30188 12.9401 8.05707 13.05 7.8 13.05C7.54293 13.05 7.29812 12.9401 7.12733 12.7479L4.72733 10.0479C4.39711 9.67642 4.43057 9.10756 4.80207 8.77733C5.17358 8.44711 5.74244 8.48057 6.07267 8.85207L7.8 10.7953L11.9273 6.15207C12.2576 5.78057 12.8264 5.74711 13.1979 6.07733Z" fill="#B2B1B3"/>
</svg>
