<svg width="84" height="106" viewBox="0 0 84 106" fill="none" xmlns="http://www.w3.org/2000/svg">
<path d="M0 34.1306L41.5714 57.8856L83.1428 34.1306L41.5714 10.3755L0 34.1306Z" fill="#E4E7F1"/>
<path d="M0 81.6407V34.1306L41.5714 57.8856V105.396L0 81.6407Z" fill="#E4E7F1"/>
<path d="M41.5714 57.8856V105.396L83.1428 81.6407V34.1306L41.5714 57.8856Z" fill="#E4E7F1"/>
<path d="M41.5714 57.8856V105.396L83.1428 81.6407V34.1306L41.5714 57.8856Z" fill="#E4E7F1"/>
<path d="M41.5714 57.8856V105.396L83.1428 81.6407V34.1306L41.5714 57.8856Z" fill="#E4E7F1"/>
<path d="M41.5714 57.8856V105.396L83.1428 81.6407V34.1306L41.5714 57.8856Z" fill="#E4E7F1"/>
<g filter="url(#filter0_i_0_4881)">
<path d="M0 34.1632L41.6286 57.951L83.2571 34.1632L41.6286 10.3755L0 34.1632Z" fill="#F46A0F"/>
<path d="M0 81.7388V34.1632L41.6286 57.951V105.527L0 81.7388Z" fill="#F46A0F"/>
<path d="M41.6286 57.951V105.527L83.2571 81.7388V34.1632L41.6286 57.951Z" fill="#F46A0F"/>
<path d="M41.6286 57.951V105.527L83.2571 81.7388V34.1632L41.6286 57.951Z" fill="#F46A0F"/>
<path d="M41.6286 57.951V105.527L83.2571 81.7388V34.1632L41.6286 57.951Z" fill="#F46A0F"/>
<path d="M41.6286 57.951V105.527L83.2571 81.7388V34.1632L41.6286 57.951Z" fill="#F46A0F"/>
</g>
<g filter="url(#filter1_i_0_4881)">
<path d="M0 34.1632L41.6286 57.951L83.2571 34.1632L41.6286 10.3755L0 34.1632Z" fill="#F46A0F"/>
<path d="M0 34.1632L41.6286 57.951L83.2571 34.1632L41.6286 10.3755L0 34.1632Z" fill="white" fill-opacity="0.22"/>
<path d="M0 81.7388V34.1632L41.6286 57.951V105.527L0 81.7388Z" fill="#F46A0F"/>
<path d="M0 81.7388V34.1632L41.6286 57.951V105.527L0 81.7388Z" fill="white" fill-opacity="0.22"/>
</g>
<g filter="url(#filter2_i_0_4881)">
<path d="M0 34.1632L41.6286 57.951L83.2571 34.1632L41.6286 10.3755L0 34.1632Z" fill="#F46A0F"/>
</g>
<rect width="36.9469" height="36.9469" rx="11.1347" transform="matrix(0.866025 0.5 -0.866025 0.5 41.8672 15.1837)" fill="#F46A0F"/>
<g clip-path="url(#clip0_0_4881)">
<path d="M47.9541 33.9201C47.9815 33.5564 47.4578 33.2306 46.7325 33.2306H39.6318C39.4482 33.2306 39.3312 33.2982 39.3312 33.4042C39.3312 33.5102 39.4482 33.5777 39.6318 33.5777L45.5052 33.5777C45.8476 33.5777 46.1251 33.738 46.1251 33.9356C46.1251 34.1333 45.8476 34.2935 45.5052 34.2935L39.6318 34.2935C38.7635 34.2935 38.0915 33.9055 38.0915 33.4042C38.0915 32.9029 38.7635 32.5149 39.6318 32.5149L46.7325 32.5149C48.1067 32.5149 49.2455 33.1466 49.1933 33.9433C49.1862 34.7331 48.0951 35.3861 46.72 35.3564L38.4045 35.3564C36.4842 35.3564 34.9794 34.4876 34.9794 33.3789C34.9794 32.2702 36.4842 31.4014 38.4045 31.4014L45.5052 31.4014C45.8476 31.4014 46.1251 31.5616 46.1251 31.7593C46.1251 31.9569 45.8476 32.1172 45.5052 32.1172L38.4045 32.1172C37.1689 32.1172 36.2192 32.6655 36.2192 33.3789C36.2192 34.0922 37.1689 34.6406 38.4045 34.6406L46.7325 34.6406C46.7415 34.6406 46.7505 34.6407 46.7594 34.6409C47.3893 34.6567 47.9536 34.3543 47.9536 33.9356C47.9536 33.9304 47.9538 33.9252 47.9541 33.9201Z" fill="#28262B"/>
</g>
<rect y="0.5" width="35.9469" height="35.9469" rx="10.6347" transform="matrix(0.866025 0.5 -0.866025 0.5 42.3002 15.4337)" fill="#E4E7F1"/>
<g clip-path="url(#clip1_0_4881)">
<path d="M47.9541 33.9201C47.9815 33.5564 47.4578 33.2306 46.7325 33.2306H39.6318C39.4482 33.2306 39.3312 33.2982 39.3312 33.4042C39.3312 33.5102 39.4482 33.5777 39.6318 33.5777L45.5052 33.5777C45.8476 33.5777 46.1251 33.738 46.1251 33.9356C46.1251 34.1333 45.8476 34.2935 45.5052 34.2935L39.6318 34.2935C38.7635 34.2935 38.0915 33.9055 38.0915 33.4042C38.0915 32.9029 38.7635 32.5149 39.6318 32.5149L46.7325 32.5149C48.1067 32.5149 49.2455 33.1466 49.1933 33.9433C49.1862 34.7331 48.0951 35.3861 46.72 35.3564L38.4045 35.3564C36.4842 35.3564 34.9794 34.4876 34.9794 33.3789C34.9794 32.2702 36.4842 31.4014 38.4045 31.4014L45.5052 31.4014C45.8476 31.4014 46.1251 31.5616 46.1251 31.7593C46.1251 31.9569 45.8476 32.1172 45.5052 32.1172L38.4045 32.1172C37.1689 32.1172 36.2192 32.6655 36.2192 33.3789C36.2192 34.0922 37.1689 34.6406 38.4045 34.6406L46.7325 34.6406C46.7415 34.6406 46.7505 34.6407 46.7594 34.6409C47.3893 34.6567 47.9536 34.3543 47.9536 33.9356C47.9536 33.9304 47.9538 33.9252 47.9541 33.9201Z" fill="#28262B"/>
</g>
<rect y="0.5" width="35.9469" height="35.9469" rx="10.6347" transform="matrix(0.866025 0.5 -0.866025 0.5 42.3002 15.4337)" stroke="#F46A0F"/>
<rect y="0.5" width="35.9469" height="35.9469" rx="10.6347" transform="matrix(0.866025 0.5 -0.866025 0.5 42.3002 7.8418)" fill="#28262B"/>
<g clip-path="url(#clip2_0_4881)">
<path d="M47.9541 26.3281C47.9815 25.9645 47.4578 25.6387 46.7325 25.6387H39.6318C39.4482 25.6387 39.3312 25.7062 39.3312 25.8123C39.3312 25.9183 39.4482 25.9858 39.6318 25.9858L45.5052 25.9858C45.8476 25.9858 46.1251 26.146 46.1251 26.3437C46.1251 26.5413 45.8476 26.7016 45.5052 26.7016L39.6318 26.7016C38.7635 26.7016 38.0915 26.3136 38.0915 25.8123C38.0915 25.3109 38.7635 24.923 39.6318 24.923L46.7325 24.923C48.1067 24.923 49.2455 25.5547 49.1933 26.3514C49.1862 27.1411 48.0951 27.7942 46.72 27.7644L38.4045 27.7644C36.4842 27.7644 34.9794 26.8956 34.9794 25.787C34.9794 24.6783 36.4842 23.8095 38.4045 23.8095L45.5052 23.8095C45.8476 23.8095 46.1251 23.9697 46.1251 24.1674C46.1251 24.365 45.8476 24.5252 45.5052 24.5252L38.4045 24.5252C37.1689 24.5252 36.2192 25.0736 36.2192 25.787C36.2192 26.5003 37.1689 27.0487 38.4045 27.0487L46.7325 27.0487C46.7415 27.0487 46.7505 27.0488 46.7594 27.049C47.3893 27.0648 47.9536 26.7624 47.9536 26.3437C47.9536 26.3385 47.9538 26.3333 47.9541 26.3281Z" fill="#28262B"/>
</g>
<rect y="0.5" width="35.9469" height="35.9469" rx="10.6347" transform="matrix(0.866025 0.5 -0.866025 0.5 42.3002 7.8418)" stroke="#F46A0F"/>
<rect width="36.9469" height="36.9469" rx="11.1347" transform="matrix(0.866025 0.5 -0.866025 0.5 41.8672 0)" fill="#F46A0F"/>
<path d="M38.7146 14.2201L38.4947 18.5424L52.1062 18.3115" stroke="#28262B" stroke-width="1.26531" stroke-linecap="round"/>
<defs>
<filter id="filter0_i_0_4881" x="0" y="10.3755" width="83.2571" height="95.151" filterUnits="userSpaceOnUse" color-interpolation-filters="sRGB">
<feFlood flood-opacity="0" result="BackgroundImageFix"/>
<feBlend mode="normal" in="SourceGraphic" in2="BackgroundImageFix" result="shape"/>
<feColorMatrix in="SourceAlpha" type="matrix" values="0 0 0 0 0 0 0 0 0 0 0 0 0 0 0 0 0 0 127 0" result="hardAlpha"/>
<feOffset/>
<feGaussianBlur stdDeviation="10.6286"/>
<feComposite in2="hardAlpha" operator="arithmetic" k2="-1" k3="1"/>
<feColorMatrix type="matrix" values="0 0 0 0 0.811765 0 0 0 0 0.823529 0 0 0 0 0.862745 0 0 0 1 0"/>
<feBlend mode="normal" in2="shape" result="effect1_innerShadow_0_4881"/>
</filter>
<filter id="filter1_i_0_4881" x="0" y="10.3755" width="83.2571" height="96.1632" filterUnits="userSpaceOnUse" color-interpolation-filters="sRGB">
<feFlood flood-opacity="0" result="BackgroundImageFix"/>
<feBlend mode="normal" in="SourceGraphic" in2="BackgroundImageFix" result="shape"/>
<feColorMatrix in="SourceAlpha" type="matrix" values="0 0 0 0 0 0 0 0 0 0 0 0 0 0 0 0 0 0 127 0" result="hardAlpha"/>
<feOffset dy="1.01224"/>
<feGaussianBlur stdDeviation="10.6286"/>
<feComposite in2="hardAlpha" operator="arithmetic" k2="-1" k3="1"/>
<feColorMatrix type="matrix" values="0 0 0 0 1 0 0 0 0 1 0 0 0 0 1 0 0 0 1 0"/>
<feBlend mode="normal" in2="shape" result="effect1_innerShadow_0_4881"/>
</filter>
<filter id="filter2_i_0_4881" x="0" y="10.3755" width="83.2571" height="48.5878" filterUnits="userSpaceOnUse" color-interpolation-filters="sRGB">
<feFlood flood-opacity="0" result="BackgroundImageFix"/>
<feBlend mode="normal" in="SourceGraphic" in2="BackgroundImageFix" result="shape"/>
<feColorMatrix in="SourceAlpha" type="matrix" values="0 0 0 0 0 0 0 0 0 0 0 0 0 0 0 0 0 0 127 0" result="hardAlpha"/>
<feOffset dy="1.01224"/>
<feGaussianBlur stdDeviation="2.78367"/>
<feComposite in2="hardAlpha" operator="arithmetic" k2="-1" k3="1"/>
<feColorMatrix type="matrix" values="0 0 0 0 1 0 0 0 0 1 0 0 0 0 1 0 0 0 0.25 0"/>
<feBlend mode="normal" in2="shape" result="effect1_innerShadow_0_4881"/>
</filter>
<clipPath id="clip0_0_4881">
<rect width="12.1469" height="12.1469" fill="white" transform="matrix(0.866025 0.5 -0.866025 0.5 41.8672 27.5837)"/>
</clipPath>
<clipPath id="clip1_0_4881">
<rect width="12.1469" height="12.1469" fill="white" transform="matrix(0.866025 0.5 -0.866025 0.5 41.8672 27.5837)"/>
</clipPath>
<clipPath id="clip2_0_4881">
<rect width="12.1469" height="12.1469" fill="white" transform="matrix(0.866025 0.5 -0.866025 0.5 41.8672 19.9918)"/>
</clipPath>
</defs>
</svg>
